<svg id="Layer_1" data-name="Layer 1" xmlns="http://www.w3.org/2000/svg" width="6.38cm" height="4.5cm" viewBox="0 0 180.83 127.51"><defs><style>.cls-1{fill:#fff;}</style></defs><title>Artboard 4</title><path class="cls-1" d="M5.16,0V84H0V0Zm7.37,0V84H7.37V0ZM16,0V84H14.93V0Zm3.5,0V84H18.25V0Zm7.37,0V84H25.8V0Z"/><path class="cls-1" d="M30.78,0h1.1V84h-1.1Zm3.5,0h5.16V84H34.29Zm7.37,0h1.1V84h-1.1ZM49,0h5.16V84H49Zm7.55,0H57.7V84H56.59Z"/><path class="cls-1" d="M62.67,0V84h-1.1V0Zm7.56,0V84H65.07V0Zm3.32,0V84h-1.1V0Zm7.56,0V84H75.95V0Zm7.37,0V84H87.37V0Z"/><path class="cls-1" d="M97.51,0V84H92.35V0ZM101,0V84H99.73V0Zm3.32,0V84h-1.1V0Zm4.06,0V84h-1.11V0Zm10.88,0V84H114.1V0Z"/><path class="cls-1" d="M128.3,0V84h-5.16V0Zm3.5,0V84h-1.29V0Zm3.32,0V84H134V0Zm7.56,0V84h-5.16V0ZM150,0V84h-1.11V0Z"/><path class="cls-1" d="M153.92,0h5.16V84h-5.16Zm7.37,0h1.29V84h-1.29Zm3.5,0H170V84H164.8Zm11.42,0h1.11V84h-1.11Zm3.5,0h1.11V84h-1.11Z"/><path class="cls-1" d="M9.6,115.67l3.56-16.88H17.4v28.72H13.56l.4-18.8-2.88,13.6h-3l-2.88-13.6.4,18.8H1.8V98.79H6Z"/><path class="cls-1" d="M40.52,127.51V98.79h3.84v28.72Z"/><path class="cls-1" d="M74.84,106.51V104a1.5,1.5,0,0,0-1.68-1.72h-.6q-1.64,0-1.64,1.72v4.76a1.41,1.41,0,0,0,.32,1.08,8.11,8.11,0,0,0,1,.72l3.64,2a16.88,16.88,0,0,1,1.7,1.06,2.72,2.72,0,0,1,.78.92,5.07,5.07,0,0,1,.28,2.06v6.12q0,4.84-4.64,4.84H71.68q-4.6,0-4.6-5.28v-1.44h3.84v1.56A1.5,1.5,0,0,0,72.64,124h.68q1.52,0,1.52-1.68v-4.88a1.41,1.41,0,0,0-.32-1.08,8.19,8.19,0,0,0-1-.72l-3.64-2a11.43,11.43,0,0,1-1.74-1.08,2.46,2.46,0,0,1-.78-1.14,5.75,5.75,0,0,1-.24-1.82v-5.88q0-4.92,4.6-4.92h2.4q4.6,0,4.6,4.92v2.8Z"/><path class="cls-1" d="M105.24,127.51H101.4V98.79h3.84Zm8.84,0h-3.84l-4.8-14v-.24l4-14.44H113l-4,14.28Z"/><path class="cls-1" d="M135.8,98.79h7.52q4.4,0,4.4,4.92v7.08q0,3.76-2.28,4.76l2.68,12h-3.64L142,115.91h-2.32v11.6H135.8Zm3.84,13.84h2.52q1.72,0,1.72-2.08v-6.2q0-2.08-1.72-2.08h-2.52Z"/><path class="cls-1" d="M170.44,127.51V98.79H180v3.48h-5.68V111h5v3.48h-5V124H180v3.48Z"/></svg>